<svg width="121" height="147" viewBox="0 0 121 147" fill="none" xmlns="http://www.w3.org/2000/svg">
<path d="M30.682 18.5396C30.3284 19.3822 30.3284 19.3822 32.5906 24.6089L34.8423 29.8115L33.9469 30.199C32.3983 30.8693 29.0618 33.1178 27.4709 34.5534C22.1357 39.4195 18.8569 46.1825 18.4215 53.2089C18.16 57.5168 18.9345 62.0945 20.5893 65.9178L21.4062 67.8053L20.0753 68.3813C18.9622 68.863 18.6653 69.1065 18.4013 69.8241C18.0477 70.6667 18.0686 70.715 20.048 75.2885C22.0275 79.8619 22.0484 79.9103 22.9047 80.2292C23.6086 80.5279 23.9893 80.4781 25.1992 79.9544L26.6268 79.3365L27.2643 80.411C27.6438 81.0224 35.2662 94.1862 44.2713 109.682C61.7699 139.89 61.1188 138.85 63.3305 139.645C63.8506 139.851 64.869 140.013 65.5892 140.018C66.8634 140.041 67.3094 139.877 85.8935 131.833C104.478 123.79 104.903 123.577 105.758 122.633C106.248 122.105 106.826 121.251 107.032 120.731C107.966 118.574 108.278 119.76 98.2329 86.327C93.0994 69.1555 88.7196 54.5884 88.5336 53.8932L88.1866 52.693L89.6142 52.0751C90.8241 51.5514 91.121 51.308 91.385 50.5904C91.7386 49.7478 91.7177 49.6994 89.7383 45.126C87.7589 40.5526 87.7379 40.5042 86.8816 40.1853C86.1777 39.8866 85.7971 39.9364 84.684 40.4182L83.3531 40.9942L82.5362 39.1067C80.2949 33.9284 75.9149 28.9861 71.1516 26.2784C69.1013 25.1259 64.6707 23.4522 62.5918 23.0303C60.5823 22.6359 57.2719 22.4884 54.9114 22.6769C52.8242 22.8332 48.9013 23.7266 47.3768 24.3864L46.4573 24.7844L44.2056 19.5819C41.2103 12.6612 41.89 12.9704 35.6227 15.6829C31.0493 17.6623 31.0009 17.6833 30.682 18.5396ZM40.9099 22.5884L42.5856 26.4601L40.6498 27.298L38.7139 28.1358L37.0383 24.2641L35.3626 20.3924L37.2984 19.5546L39.2342 18.7168L40.9099 22.5884ZM41.545 45.2982L46.5721 56.9133L35.925 61.5214L25.2779 66.1296L24.5029 64.3389C20.2927 54.6113 23.184 43.103 31.5086 36.7132C33.2971 35.3358 34.0191 34.8796 35.5121 34.1472L36.518 33.6832L41.545 45.2982ZM49.2884 41.9468L54.3155 53.5619L52.3796 54.3997L50.4438 55.2376L45.4167 43.6225L40.3896 32.0075L42.3255 31.1696L44.2613 30.3318L49.2884 41.9468ZM52.0408 27.3957C59.3778 25.628 67.5252 27.7905 73.1212 32.9534C75.1325 34.8124 76.8234 37.126 78.2253 39.9669L79.554 42.6385L68.8585 47.2676L58.1871 51.8862L53.1601 40.2711L48.133 28.6561L48.9557 28.3C49.3913 28.1115 50.7955 27.7049 52.0408 27.3957ZM85.8666 46.8017L86.7045 48.7375L55.731 62.1431L24.7576 75.5486L23.9197 73.6128L23.0819 71.6769L54.0553 58.2714L85.0288 44.8659L85.8666 46.8017ZM40.0503 84.3295C42.8466 90.7904 44.2212 93.7006 44.7185 94.3186C45.5043 95.2714 48.7883 96.7518 49.4417 96.4691C49.7804 96.3224 50.1221 96.979 52.1853 101.746L54.5522 107.215L55.4085 107.534L56.2511 107.887L62.8087 105.049L69.3664 102.211L69.6853 101.355L70.0389 100.512L67.2007 93.9544L64.3625 87.3967L63.5062 87.0778C62.6983 86.7379 62.5426 86.7766 59.2275 88.2114L55.8156 89.6881L55.7199 89.0687C55.6668 88.7469 54.7235 86.3683 53.6134 83.8033C51.613 79.1814 51.5921 79.1331 51.9457 78.2905C52.6319 76.5569 55.0553 76.5136 55.7989 78.2317C56.4482 79.732 57.5389 80.7252 59.3313 81.4147C61.8728 82.4408 63.9487 82.0595 65.9503 80.245C67.1306 79.1883 68.0737 76.6541 67.8671 75.0484C67.7989 74.3596 66.9322 72.0915 65.4764 68.728L63.2142 63.5012L73.7646 58.935L84.3149 54.3687L84.5572 55.3269C84.7045 55.8664 88.9619 70.0843 94.0423 86.9341C99.0985 103.794 103.255 117.912 103.281 118.303C103.293 118.729 103.073 119.284 102.832 119.589C102.152 120.343 66.3878 135.822 65.3733 135.802C64.9854 135.768 64.4307 135.549 64.1284 135.249C63.8608 134.962 56.4132 122.269 47.5822 107.042C38.7753 91.8055 31.3237 78.97 31.0312 78.4933L30.4985 77.6608L33.3055 76.4459L36.1125 75.2311L40.0503 84.3295ZM61.5943 70.3795C63.8564 75.6063 63.8564 75.6063 63.5028 76.4488C62.8166 78.1824 60.3932 78.2257 59.6496 76.5076C58.351 73.5071 54.3638 71.9287 51.3874 73.2169C49.8146 73.8976 48.8351 74.9536 48.1318 76.7807C47.1743 79.1488 47.3015 79.8408 49.7103 85.4064C51.7002 90.004 51.7211 90.0524 51.3675 90.895C51.1721 91.4392 50.7582 91.8769 50.2984 92.0759C49.8387 92.2749 49.2363 92.2771 48.7057 92.047L47.8494 91.7281L43.9115 82.6296L39.9841 73.5554L49.6633 69.3661L59.3425 65.1769L61.5943 70.3795ZM63.329 95.6301L65.0047 99.5017L61.133 101.177L57.2614 102.853L55.5857 98.9814L53.91 95.1098L57.7817 93.4341L61.6533 91.7584L63.329 95.6301Z" fill="#000"/>
<path d="M75.436 63.5266C75.2059 64.0572 75.208 64.6596 75.407 65.1193C75.606 65.5791 76.0437 65.993 76.588 66.1884C77.1185 66.4185 77.721 66.4163 78.1807 66.2173C78.6405 66.0183 79.0544 65.5806 79.2498 65.0364C79.4798 64.5058 79.4777 63.9034 79.2787 63.4436C79.0797 62.9839 78.642 62.57 78.0977 62.3746C77.5672 62.1445 76.9648 62.1467 76.505 62.3456C76.0453 62.5446 75.6314 62.9824 75.436 63.5266Z" fill="#000"/>
<path d="M70.7144 79.3037C68.4361 85.059 68.2342 85.7211 68.5588 86.4712C68.8835 87.2213 69.5043 87.5272 75.2597 89.8056C81.0151 92.0839 81.6771 92.2858 82.4272 91.9612C83.1774 91.6365 83.4833 91.0157 85.7616 85.2603C88.04 79.5049 88.2419 78.8429 87.9172 78.0927C87.5926 77.3426 86.9717 77.0367 81.2163 74.7583C75.4609 72.48 74.7989 72.2781 74.0488 72.6028C73.2986 72.9274 72.9927 73.5483 70.7144 79.3037ZM79.7315 78.7625L83.1986 80.135L81.7849 83.7061L80.385 87.2426L76.8485 85.8426L73.2774 84.4289L74.6499 80.9618C75.4048 79.0549 76.0708 77.4738 76.1434 77.4424C76.216 77.4109 77.8246 78.0076 79.7315 78.7625Z" fill="#000"/>
<path d="M69.2228 107.588L68.8693 108.431L71.7075 114.989L74.5457 121.546L75.402 121.865L76.2445 122.219L82.8022 119.381L89.3599 116.542L89.6788 115.686L90.0324 114.843L87.1942 108.286L84.356 101.728L83.4997 101.409L82.6571 101.056L76.0994 103.894L69.5418 106.732L69.2228 107.588ZM83.3225 109.961L84.9982 113.833L81.1265 115.509L77.2548 117.185L75.5791 113.313L73.9034 109.441L77.7751 107.766L81.6468 106.09L83.3225 109.961Z" fill="#000"/>
<path d="M88.5813 99.21C87.8846 100.919 89.6322 102.634 91.3261 101.901C92.3182 101.471 92.8535 100.119 92.4241 99.127C91.9947 98.1349 90.6425 97.5996 89.6504 98.029C89.1906 98.228 88.7767 98.6657 88.5813 99.21Z" fill="#000"/>
<path d="M64.5708 123.393C63.8741 125.102 65.6217 126.816 67.3156 126.083C67.7754 125.884 68.1893 125.447 68.3847 124.902C68.6147 124.372 68.6126 123.769 68.4136 123.31C68.2146 122.85 67.7769 122.436 67.2326 122.241C66.7021 122.01 66.0997 122.013 65.6399 122.212C65.1801 122.411 64.7662 122.848 64.5708 123.393Z" fill="#000"/>
</svg>
