<svg width="118" height="118" viewBox="0 0 118 118" fill="none" xmlns="http://www.w3.org/2000/svg">
<g clip-path="url(#clip0_261_19)">
<path d="M35.8381 0.437923C35.3541 0.714485 34.8702 1.40589 34.3401 2.55824C33.6487 4.03323 33.5334 4.56331 33.4643 6.45316C33.3952 8.18167 33.4643 8.91917 33.81 9.95628C34.2709 11.27 34.2709 11.293 33.81 11.6848C33.0034 12.4223 32.0354 14.0125 31.4131 15.6028C30.6065 17.7231 30.5604 21.0879 31.3209 23.1391C31.9202 24.7985 32.8881 26.3426 33.9713 27.4028L34.778 28.1864L34.1788 29.1082C32.6346 31.5742 31.9432 34.8469 32.0584 39.2489L32.1506 42.2219L30.7678 42.752C21.6182 46.186 16.5709 53.4457 17.5159 61.7426C17.6311 62.8258 17.7463 63.8399 17.7463 63.9782C17.7463 64.1395 17.2393 64.5774 16.617 64.9692C15.0498 65.9832 13.2061 67.9883 12.5377 69.4403C11.8463 70.9614 11.6159 73.0586 11.9616 74.6489C12.2612 76.0086 25.0983 107.122 26.6194 110.141C28.8088 114.52 31.2057 116.755 34.6858 117.677C36.4143 118.138 81.6323 118.138 83.3608 117.677C85.1815 117.193 86.6104 116.387 87.9241 115.073C89.4221 113.621 90.2288 112.446 91.4502 110.049C92.9252 107.099 105.762 75.9856 106.039 74.6489C106.385 73.0586 106.154 70.9614 105.463 69.4403C104.794 68.0344 102.951 65.9832 101.499 65.0614L100.508 64.4391L100.531 61.5352C100.531 59.945 100.415 58.009 100.277 57.2254C99.0788 50.7723 94.9073 44.7571 89.0534 41.1157L87.394 40.0785L88.0854 38.7188C90.367 34.1094 89.4452 28.993 85.6194 25.2133C84.5362 24.1532 83.4299 23.3235 82.4389 22.8164C80.9639 22.102 80.8948 22.0328 80.8948 21.2262C80.8717 18.7602 79.4428 15.234 77.2303 12.3071C73.7041 7.58245 65.9604 1.59027 62.1577 0.599251C59.9913 0.0461258 58.2397 0.645345 57.5022 2.21253C57.1104 3.06527 57.1104 3.84886 57.5252 7.42113C57.7096 9.03441 57.2026 10.786 56.0041 12.6528C55.0823 14.0586 53.4459 15.9024 53.1002 15.9024C52.985 15.9024 52.6393 15.3262 52.3397 14.6348C52.017 13.8973 51.1873 12.6989 50.3346 11.777C48.6291 9.93323 46.4166 8.71175 44.0198 8.29691C42.4756 8.02034 40.1018 8.13558 39.0186 8.55042C38.212 8.85003 38.0276 8.55042 38.0276 6.868C38.0276 5.85394 38.1889 5.16253 38.742 4.03323C39.5717 2.25863 39.5026 1.47503 38.4424 0.576204C37.6358 -0.115202 36.783 -0.161296 35.8381 0.437923ZM64.4393 6.89105C76.608 14.9805 79.5811 23.3235 72.3444 29.2004C68.6799 32.1735 62.6416 34.5012 50.9338 37.4282C38.6729 40.4934 37.0596 40.8621 36.8522 40.5164C36.5295 40.0325 36.6217 35.9532 36.9905 34.386C37.4514 32.4039 38.0967 31.2516 39.5948 29.6844C41.185 28.025 42.6139 27.1032 47.6381 24.568C55.428 20.627 58.4702 18.1149 60.7057 13.6438C61.9041 11.27 62.319 9.49534 62.1577 7.30589C62.0885 6.33792 62.1116 5.53128 62.2038 5.53128C62.2959 5.53128 63.31 6.15355 64.4393 6.89105ZM45.0569 13.4825C46.8776 14.3582 48.2143 16.1098 48.6983 18.2071C48.8366 18.7602 48.6291 18.8985 44.8495 20.8114C42.66 21.9176 40.194 23.2774 39.3873 23.8535L37.9123 24.8676L37.267 24.2453C35.769 22.8164 34.9854 20.0739 35.4924 18.0227C36.5065 13.7129 41.0928 11.5235 45.0569 13.4825ZM82.4389 28.486C84.6745 30.7446 85.2967 33.7867 84.0522 36.5063C83.5913 37.4973 82.8768 38.4192 81.517 39.7328C78.4057 42.7981 73.4506 45.8172 65.1768 49.666C62.826 50.7723 60.7288 51.9016 60.4522 52.2242C59.7147 53.0539 59.7608 54.1832 60.5674 55.1051C61.7428 56.4188 62.6186 56.1653 71.3303 51.7864C76.6311 49.159 80.2264 46.9465 83.0612 44.6188L84.1674 43.6969L85.435 44.3653C89.6987 46.6008 93.5706 51.0719 95.0916 55.543C95.7139 57.4328 96.1748 60.6594 95.9674 61.927L95.8291 62.8028L93.4323 62.7336C90.7358 62.6414 88.4311 63.0332 86.5413 63.9321C85.0432 64.6235 82.7846 66.375 82.0471 67.3891C81.7245 67.85 81.4248 68.2188 81.3557 68.2188C81.2866 68.2188 80.8948 67.7809 80.4569 67.2278C75.5018 61.0512 66.3522 60.6133 60.6827 66.2598L59.0002 67.9422L57.3409 66.2598C51.6483 60.6133 42.4987 61.0512 37.5436 67.2278C37.1057 67.7809 36.7139 68.2188 36.6448 68.2188C36.5756 68.2188 36.276 67.85 35.9534 67.3891C35.308 66.4903 33.0955 64.7157 31.7358 64.0242C29.9842 63.1485 27.4952 62.6645 24.7756 62.7106L22.2405 62.7567L22.0561 61.2817C21.5721 57.0641 23.3467 53.0078 26.9651 50.0809C30.3069 47.3844 32.9573 46.5086 49.0901 42.6367C59.7147 40.1016 66.9514 37.7508 71.2151 35.4692C74.8795 33.4871 77.8526 30.7907 79.2584 28.1172L79.9959 26.7344L80.7104 27.1032C81.0791 27.3106 81.8627 27.9328 82.4389 28.486ZM50.9799 67.4582C52.5471 68.0574 54.0221 69.1867 54.944 70.4543C56.442 72.5055 56.5342 72.9434 56.6725 80.0418L56.8108 86.4719L57.4561 87.025C58.3319 87.7856 59.6686 87.7856 60.5444 87.025L61.1897 86.4719L61.328 80.0418C61.4663 72.9434 61.5354 72.5285 63.0334 70.4774C64.7389 68.1496 67.2049 66.9282 70.178 66.9742C73.5889 66.9973 76.4237 68.7719 77.8987 71.7449C79.1893 74.3953 79.3506 73.3352 74.5338 94.377L70.178 113.391H65.753H61.3049V109.473C61.3049 105.232 61.1666 104.587 60.1295 104.034C59.3229 103.619 58.6776 103.619 57.8709 104.034C56.8338 104.587 56.6956 105.232 56.6956 109.473V113.391H52.2475H47.8225L43.4666 94.377C38.719 73.6117 38.8342 74.4414 39.9635 71.9985C40.6319 70.5465 42.1299 68.8641 43.4436 68.1035C45.61 66.8129 48.6983 66.5594 50.9799 67.4582ZM27.0112 67.4121C29.5924 67.6887 32.1967 69.5324 33.4182 71.9063C33.6948 72.4364 34.2018 74.234 34.5705 75.9164C35.308 79.3965 42.8213 112.377 43.0057 112.976C43.1209 113.368 42.8674 113.391 39.733 113.391C37.7741 113.391 35.9764 113.275 35.4233 113.114C33.8791 112.653 32.2198 110.902 30.9291 108.366C29.408 105.416 16.617 74.6258 16.4557 73.4735C16.2483 72.2289 16.8705 70.7309 18.0229 69.7168C19.7514 68.1266 22.978 66.9742 25.0061 67.2047C25.3979 67.2508 26.2967 67.343 27.0112 67.4121ZM94.6998 67.2969C98.8713 67.9883 101.983 70.777 101.545 73.4735C101.383 74.6258 88.5924 105.416 87.0713 108.366C85.7807 110.902 84.1213 112.653 82.5772 113.114C82.0241 113.275 80.2264 113.391 78.2674 113.391C75.133 113.391 74.8795 113.368 74.9948 112.976C75.133 112.538 83.1764 77.161 83.7526 74.4414C84.5823 70.6387 86.9561 68.2188 90.6666 67.4121C92.4413 67.0203 92.8791 67.0203 94.6998 67.2969Z" fill="#EBF2FC"/>
<path d="M57.479 94.1234C56.6263 94.9762 56.488 95.7367 57.0181 96.7738C58.1013 98.8481 61.3048 97.9262 61.3048 95.5063C61.3048 94.6305 59.945 93.3398 59.0001 93.3398C58.47 93.3398 58.0552 93.5473 57.479 94.1234Z" fill="#EBF2FC"/>
</g>
<defs>
<clipPath id="clip0_261_19">
<rect width="118" height="118" fill="white"/>
</clipPath>
</defs>
</svg>
