<svg width="121" height="147" viewBox="0 0 121 147" fill="none" xmlns="http://www.w3.org/2000/svg">
<path d="M30.682 18.5395C30.3284 19.382 30.3284 19.382 32.5906 24.6088L34.8423 29.8114L33.9469 30.1989C32.3983 30.8692 29.0618 33.1177 27.4709 34.5532C22.1357 39.4194 18.8569 46.1824 18.4215 53.2088C18.16 57.5167 18.9345 62.0944 20.5893 65.9177L21.4062 67.8051L20.0753 68.3812C18.9622 68.8629 18.6653 69.1063 18.4013 69.824C18.0477 70.6665 18.0686 70.7149 20.048 75.2883C22.0275 79.8618 22.0484 79.9102 22.9047 80.2291C23.6086 80.5278 23.9893 80.478 25.1992 79.9543L26.6268 79.3364L27.2643 80.4109C27.6438 81.0223 35.2662 94.1861 44.2713 109.682C61.7699 139.889 61.1188 138.85 63.3305 139.645C63.8506 139.851 64.869 140.013 65.5892 140.018C66.8634 140.041 67.3094 139.877 85.8935 131.833C104.478 123.79 104.903 123.577 105.758 122.632C106.248 122.104 106.826 121.251 107.032 120.731C107.966 118.574 108.278 119.76 98.2329 86.3269C93.0994 69.1554 88.7196 54.5883 88.5336 53.893L88.1866 52.6929L89.6142 52.075C90.8241 51.5513 91.121 51.3079 91.385 50.5903C91.7386 49.7477 91.7177 49.6993 89.7383 45.1259C87.7589 40.5525 87.7379 40.5041 86.8816 40.1851C86.1777 39.8865 85.7971 39.9363 84.684 40.418L83.3531 40.9941L82.5362 39.1066C80.2949 33.9282 75.9149 28.986 71.1516 26.2783C69.1013 25.1258 64.6707 23.4521 62.5918 23.0302C60.5823 22.6357 57.2719 22.4883 54.9114 22.6768C52.8242 22.8331 48.9013 23.7265 47.3768 24.3863L46.4573 24.7843L44.2056 19.5817C41.2103 12.6611 41.89 12.9703 35.6227 15.6828C31.0493 17.6622 31.0009 17.6832 30.682 18.5395ZM40.9099 22.5883L42.5856 26.46L40.6498 27.2978L38.7139 28.1357L37.0383 24.264L35.3626 20.3923L37.2984 19.5545L39.2342 18.7166L40.9099 22.5883ZM41.545 45.2981L46.5721 56.9131L35.925 61.5213L25.2779 66.1294L24.5029 64.3388C20.2927 54.6112 23.184 43.1029 31.5086 36.7131C33.2971 35.3356 34.0191 34.8795 35.5121 34.1471L36.518 33.6831L41.545 45.2981ZM49.2884 41.9467L54.3155 53.5618L52.3796 54.3996L50.4438 55.2374L45.4167 43.6224L40.3896 32.0074L42.3255 31.1695L44.2613 30.3317L49.2884 41.9467ZM52.0408 27.3956C59.3778 25.6279 67.5252 27.7904 73.1212 32.9533C75.1325 34.8122 76.8234 37.1259 78.2253 39.9668L79.554 42.6383L68.8585 47.2674L58.1871 51.8861L53.1601 40.271L48.133 28.656L48.9557 28.2999C49.3913 28.1114 50.7955 27.7047 52.0408 27.3956ZM85.8666 46.8016L86.7045 48.7374L55.731 62.143L24.7576 75.5485L23.9197 73.6127L23.0819 71.6768L54.0553 58.2713L85.0288 44.8657L85.8666 46.8016ZM40.0503 84.3294C42.8466 90.7903 44.2212 93.7005 44.7185 94.3185C45.5043 95.2712 48.7883 96.7517 49.4417 96.4689C49.7804 96.3223 50.1221 96.9789 52.1853 101.746L54.5522 107.215L55.4085 107.534L56.2511 107.887L62.8087 105.049L69.3664 102.211L69.6853 101.354L70.0389 100.512L67.2007 93.9542L64.3625 87.3966L63.5062 87.0777C62.6983 86.7378 62.5426 86.7764 59.2275 88.2112L55.8156 89.6879L55.7199 89.0686C55.6668 88.7468 54.7235 86.3681 53.6134 83.8031C51.613 79.1813 51.5921 79.1329 51.9457 78.2904C52.6319 76.5568 55.0553 76.5135 55.7989 78.2316C56.4482 79.7319 57.5389 80.7251 59.3313 81.4146C61.8728 82.4407 63.9487 82.0593 65.9503 80.2449C67.1306 79.1882 68.0737 76.654 67.8671 75.0482C67.7989 74.3595 66.9322 72.0914 65.4764 68.7279L63.2142 63.5011L73.7646 58.9348L84.3149 54.3686L84.5572 55.3267C84.7045 55.8663 88.9619 70.0842 94.0423 86.9339C99.0985 103.794 103.255 117.912 103.281 118.303C103.293 118.729 103.073 119.284 102.832 119.589C102.152 120.343 66.3878 135.822 65.3733 135.802C64.9854 135.768 64.4307 135.549 64.1284 135.249C63.8608 134.962 56.4132 122.269 47.5822 107.042C38.7753 91.8054 31.3237 78.9699 31.0312 78.4932L30.4985 77.6607L33.3055 76.4458L36.1125 75.2309L40.0503 84.3294ZM61.5943 70.3794C63.8564 75.6061 63.8564 75.6061 63.5028 76.4487C62.8166 78.1823 60.3932 78.2255 59.6496 76.5075C58.351 73.5069 54.3638 71.9286 51.3874 73.2168C49.8146 73.8975 48.8351 74.9535 48.1318 76.7806C47.1743 79.1487 47.3015 79.8407 49.7103 85.4062C51.7002 90.0039 51.7211 90.0523 51.3675 90.8948C51.1721 91.4391 50.7582 91.8768 50.2984 92.0758C49.8387 92.2748 49.2363 92.2769 48.7057 92.0469L47.8494 91.728L43.9115 82.6295L39.9841 73.5553L49.6633 69.366L59.3425 65.1768L61.5943 70.3794ZM63.329 95.6299L65.0047 99.5016L61.133 101.177L57.2614 102.853L55.5857 98.9813L53.91 95.1096L57.7817 93.434L61.6533 91.7583L63.329 95.6299Z" fill="#EBF2FC"/>
<path d="M75.4357 63.5267C75.2056 64.0572 75.2078 64.6596 75.4068 65.1194C75.6058 65.5792 76.0435 65.9931 76.5878 66.1885C77.1183 66.4185 77.7207 66.4164 78.1805 66.2174C78.6402 66.0184 79.0541 65.5807 79.2495 65.0364C79.4796 64.5059 79.4775 63.9035 79.2785 63.4437C79.0795 62.9839 78.6418 62.57 78.0975 62.3746C77.567 62.1446 76.9645 62.1467 76.5048 62.3457C76.045 62.5447 75.6311 62.9824 75.4357 63.5267Z" fill="#EBF2FC"/>
<path d="M70.7144 79.3035C68.4361 85.0589 68.2342 85.7209 68.5588 86.471C68.8835 87.2211 69.5043 87.5271 75.2597 89.8054C81.0151 92.0837 81.6771 92.2856 82.4272 91.961C83.1774 91.6363 83.4833 91.0155 85.7616 85.2601C88.04 79.5047 88.2419 78.8427 87.9172 78.0925C87.5926 77.3424 86.9717 77.0365 81.2163 74.7582C75.4609 72.4798 74.7989 72.2779 74.0488 72.6026C73.2986 72.9272 72.9927 73.5481 70.7144 79.3035ZM79.7315 78.7623L83.1986 80.1348L81.7849 83.7059L80.385 87.2424L76.8485 85.8424L73.2774 84.4288L74.6499 80.9616C75.4048 79.0547 76.0708 77.4736 76.1434 77.4422C76.216 77.4108 77.8246 78.0074 79.7315 78.7623Z" fill="#EBF2FC"/>
<path d="M69.2231 107.588L68.8695 108.431L71.7077 114.988L74.5459 121.546L75.4022 121.865L76.2448 122.219L82.8024 119.38L89.3601 116.542L89.679 115.686L90.0326 114.843L87.1944 108.286L84.3562 101.728L83.4999 101.409L82.6573 101.055L76.0997 103.894L69.542 106.732L69.2231 107.588ZM83.3227 109.961L84.9984 113.833L81.1268 115.509L77.2551 117.184L75.5794 113.313L73.9037 109.441L77.7754 107.765L81.647 106.09L83.3227 109.961Z" fill="#EBF2FC"/>
<path d="M88.5813 99.2097C87.8846 100.919 89.6322 102.633 91.3261 101.9C92.3182 101.471 92.8535 100.119 92.4241 99.1267C91.9947 98.1346 90.6425 97.5993 89.6504 98.0287C89.1906 98.2277 88.7767 98.6654 88.5813 99.2097Z" fill="#EBF2FC"/>
<path d="M64.5706 123.392C63.8739 125.102 65.6215 126.816 67.3154 126.083C67.7751 125.884 68.189 125.446 68.3844 124.902C68.6145 124.372 68.6123 123.769 68.4134 123.309C68.2144 122.85 67.7766 122.436 67.2324 122.24C66.7018 122.01 66.0994 122.012 65.6397 122.211C65.1799 122.41 64.766 122.848 64.5706 123.392Z" fill="#EBF2FC"/>
</svg>