<svg width="133" height="97" viewBox="0 0 133 97" fill="none" xmlns="http://www.w3.org/2000/svg">
<path d="M119.69 5.77598C113.46 5.58607 109.909 5.6119 109.609 5.80829C108.464 6.5877 108.637 8.46251 109.903 8.87505C110.304 9.02211 114.728 9.23927 119.764 9.37441C124.799 9.50956 128.917 9.66548 128.953 9.70431C129.053 10.1234 128.706 13.6954 128.553 13.767C128.339 13.8673 70.9347 10.6231 70.5777 10.4924C70.377 10.4188 70.9581 9.17758 71.5883 8.28591C71.7541 8.0405 76.1685 8.07569 87.1029 8.407C96.5646 8.68365 102.588 8.74687 102.985 8.56067C104.237 7.97342 104.166 5.95749 102.85 5.47545C102.538 5.36107 95.6644 5.06303 87.5778 4.83086L72.8938 4.3762L72.6008 3.65661C71.99 2.28493 71.1448 1.89881 68.4473 1.8037C65.8109 1.67995 64.9581 2.00535 63.9493 3.44715C63.4767 4.1159 63.3099 4.15685 61.5143 4.08595L59.5908 4.01918L59.1886 3.18309C58.5954 1.97087 57.6328 1.49075 55.4473 1.3791C52.4739 1.20844 51.7985 1.39474 50.4964 2.60152L49.3329 3.70602L47.2144 3.61887L45.1099 3.5624L44.7699 2.90212C43.9045 1.25859 43.3997 1.04819 40.2736 0.949147C37.5902 0.884702 36.459 1.2102 35.649 2.31661C34.9189 3.27374 34.8578 3.3024 32.6196 3.1969L30.8099 3.09533L30.3467 2.28788C29.6278 1.00415 28.752 0.632364 26.2883 0.520813C23.9526 0.405127 22.7215 0.796089 22.0724 1.80839C21.8514 2.13561 21.6139 2.5078 21.5198 2.62642C21.4175 2.76754 20.2572 2.82726 18.949 2.80729C16.221 2.7265 15.0651 3.11949 14.1668 4.39768C13.3403 5.54908 13.22 7.67344 13.8836 9.03897C14.3867 10.0141 14.3842 10.0897 13.8176 10.8771C12.8641 12.2371 12.7005 14.065 13.417 15.4244C14.1335 16.7837 14.8929 17.266 17.2166 17.7599C18.2252 17.9763 19.114 18.1743 19.2033 18.207C19.5379 18.3295 19.0026 20.9652 18.187 23.192C17.2914 25.5682 16.0756 27.3678 14.0589 29.2823C13.5547 29.7609 12.7907 30.6035 12.351 31.1823L11.5434 32.2131L8.30653 31.1041C5.44887 30.1339 4.98626 30.0155 4.27207 30.2386C2.8296 30.6542 2.44278 31.2268 1.8653 33.7705C-1.97548 50.6806 0.750033 67.1384 9.51602 79.8137L10.8169 81.7188L10.1046 84.0089C9.46879 86.021 9.41796 86.4361 9.65191 87.5933C9.81451 88.3926 10.2589 89.3207 10.7492 89.985L11.5951 91.0601L34.4346 99.502C49.1264 104.909 57.5748 107.952 58.1678 107.991C59.3903 108.107 61.432 107.298 62.357 106.362C62.9164 105.801 63.3163 105.055 63.8683 103.548L64.6097 101.523L66.7722 100.938C80.9758 97.1092 93.0409 87.4462 101.118 73.3377C102.958 70.1086 103.657 68.4768 103.544 67.5425C103.307 65.772 104.688 66.3542 78.3657 56.7134C55.7914 48.4452 54.5728 47.9733 54.869 47.6481C57.9886 44.1732 59.295 42.1261 60.6296 38.4822C61.783 35.3331 62.3303 32.3192 62.2478 29.7124L62.201 28.1136L63.0452 28.2952C63.5383 28.3993 77.4064 31.5654 93.9021 35.3623C110.398 39.1592 124.244 42.3171 124.67 42.3967C125.792 42.5782 127.076 42.1811 127.952 41.3793C128.672 40.7248 128.746 40.5223 129.303 38.1749C129.655 36.7988 129.886 35.1999 129.853 34.6008C129.8 33.4334 129.137 32.2723 128.207 31.7022C127.897 31.5122 113.371 28.4874 95.955 24.9914C78.5394 21.4954 64.1662 18.6035 64.0547 18.5627C63.6978 18.4319 64.6173 16.9575 66.0348 15.4358L67.3748 13.9877L97.6347 15.7084C114.289 16.6551 128.354 17.4187 128.896 17.3879C130.268 17.3035 131.455 16.4117 131.933 15.107C132.394 13.8474 132.643 9.5762 132.307 8.56017C132.021 7.61363 131.022 6.61012 130.055 6.28129C129.653 6.13423 124.982 5.90285 119.69 5.77598ZM67.3853 8.22611C66.7139 9.23024 65.375 10.8828 64.4088 11.932C61.4656 15.0633 60.9741 15.8527 59.7219 19.2717C58.4614 22.7132 58.3776 23.2182 58.569 27.5997C58.793 32.3757 58.5451 34.0197 57.019 37.772C55.614 41.2626 54.8767 42.4467 52.4814 44.9113L50.9475 46.5434L49.9859 46.2678C49.4564 46.1249 49.049 45.9246 49.082 45.8347C49.1067 45.7672 49.9648 44.8059 50.9838 43.7505C53.6695 40.9076 54.3268 39.8728 55.5214 36.6112C56.683 33.4397 56.9014 32.0145 56.7044 28.7535C56.485 25.4843 56.6373 23.0655 57.2216 20.7795C58.2206 16.8085 59.7989 14.0191 63.0135 10.6301C64.7413 8.81387 66.0661 7.1307 66.8635 5.71351C67.007 5.45993 67.4404 5.31257 67.9665 5.32669C68.7933 5.34888 68.8379 5.36522 68.7236 5.88458C68.6611 6.19334 68.0484 7.24447 67.3853 8.22611ZM55.1199 5.51948C54.8989 5.8467 53.8609 7.02271 52.7561 8.17421C50.3278 10.7288 49.4883 12.054 48.3266 15.2255C47.2556 18.1497 47.0547 19.7343 47.2712 23.5637C47.4864 27.6732 47.2395 29.5216 45.9931 32.9938C44.7243 36.4578 43.7965 37.9547 41.327 40.6218L39.5746 42.5055L38.6154 42.1542C38.08 41.9581 37.6727 41.7579 37.6891 41.7129C37.7056 41.6679 38.5695 40.7598 39.5885 39.7044C42.266 36.8839 43.0091 35.753 44.2119 32.469C45.4065 29.2074 45.592 27.8723 45.3802 23.8915C45.1325 19.3874 45.2294 18.7086 46.7617 14.5248C48.2694 10.4085 48.9514 9.30626 51.8204 6.37737C53.1109 5.06428 53.333 4.94152 54.296 4.93708C54.8526 4.93688 55.3787 4.951 55.4233 4.96734C55.4762 4.96119 55.3327 5.21476 55.1199 5.51948ZM60.7422 7.78282C60.7257 7.82781 60.2661 8.32276 59.7595 8.87703C58.8651 9.79946 58.6901 9.86291 57.5098 9.8388C56.7888 9.80431 56.2263 9.75136 56.2428 9.70637C56.2593 9.66139 56.6742 9.15009 57.1891 8.57333C58.0248 7.60389 58.1775 7.53228 59.2603 7.54619C60.5826 7.59682 60.7998 7.62537 60.7422 7.78282ZM125.984 36.8063C125.744 37.9432 125.512 38.8531 125.451 38.8817C125.398 38.8879 111.104 35.6422 93.6972 31.6392L62.0125 24.3455L62.1671 23.5092C62.2649 23.0348 62.3875 22.493 62.4311 22.3048C62.4853 22.0186 68.3328 23.1144 94.098 28.2655C111.477 31.7226 125.85 34.6146 126.059 34.6656C126.358 34.7493 126.321 35.195 125.984 36.8063ZM40.3525 5.0853C38.3364 7.68879 37.9753 8.39839 36.9193 11.5577C35.7868 14.995 35.691 15.8783 35.9833 20.3988C36.1896 23.8417 35.963 25.2894 34.6613 28.8433C33.2879 32.5241 32.4071 33.9618 29.9095 36.5675L28.2205 38.3469L27.2613 37.9955L26.3021 37.6442L28.1545 35.6951C30.7602 33.0014 31.9231 31.2079 32.9777 28.3287C34.024 25.4721 34.3028 23.3293 34.0601 19.8474C33.9673 18.5123 33.9359 16.6641 33.9953 15.7419C34.1297 13.6482 35.5461 9.09034 36.6362 7.21915C38.0545 4.72834 38.373 4.41132 39.2749 4.43552C40.5667 4.50048 40.7369 4.58833 40.3525 5.0853ZM45.905 7.88434C45.2007 8.97845 44.8788 9.16667 43.7538 9.06077C43.1467 8.99147 42.4868 8.92833 42.2531 8.94477C41.869 8.95718 41.902 8.86721 42.6132 8.03071C43.3326 7.17173 43.5381 7.09396 44.6737 7.10172C46.366 7.10928 46.3883 7.11745 45.905 7.88434ZM55.5563 14.9653C54.8457 16.4908 54.4744 16.814 53.73 16.5669C53.5516 16.5015 52.9915 16.3729 52.4901 16.2913L51.5707 16.1076L52.1305 15.0626C53.1479 13.1138 53.1174 13.1281 54.5066 13.2032C56.436 13.3232 56.3856 13.2537 55.5563 14.9653ZM25.9326 6.25803C24.7583 9.11883 24.4028 11.5397 24.6043 15.134C24.8569 19.4868 24.7586 20.4458 23.6814 23.8013C22.4947 27.525 21.341 29.5004 18.841 32.1818L17.0192 34.1166L16.0576 33.841C14.9093 33.5224 14.854 33.6042 17.3904 30.9617C19.5613 28.6955 20.5443 27.1168 21.6154 24.1926C22.7358 21.1335 22.9474 19.4507 22.7429 15.2431C22.5404 11.4443 22.949 8.5327 24.0739 5.80686L24.7752 4.09938L25.663 4.09292C26.1445 4.0907 26.5955 4.1028 26.6624 4.12731C26.7375 4.12933 26.4056 5.10472 25.9326 6.25803ZM32.4634 7.6296C32.1997 8.34939 32.1081 8.39236 31.178 8.30683C30.6156 8.25387 29.8863 8.24187 29.5633 8.22563C28.9985 8.24833 28.9703 8.187 29.2257 7.4897C29.4976 6.74742 29.581 6.72695 30.9644 6.74893C32.8598 6.75437 32.7929 6.72986 32.4634 7.6296ZM43.1889 13.5734C42.9088 14.3381 42.8782 14.3525 41.8027 14.1116C41.1674 13.981 40.4794 13.8565 40.2539 13.8504C39.9169 13.8035 39.8688 13.6584 40.0583 13.141C40.2808 12.5337 40.4335 12.4621 41.3883 12.4802C41.9755 12.4656 42.68 12.5451 42.97 12.6513C43.4021 12.7841 43.4278 12.921 43.1889 13.5734ZM19.9322 6.892C19.9469 7.61169 19.8247 7.66898 18.4132 7.58566C16.8819 7.484 16.9042 7.49217 17.0151 6.84399C17.1023 6.46776 17.369 6.36135 18.2568 6.35489C19.7095 6.32573 19.9185 6.37677 19.9322 6.892ZM53.4352 21.1018C53.3349 21.6519 53.1313 22.1385 53.0092 22.1958C52.887 22.2531 52.3104 22.1695 51.7668 21.9959C50.8275 21.7284 50.7325 21.6426 50.7096 20.9454C50.6283 19.7166 50.767 19.6144 52.0985 19.847C52.7643 19.9633 53.4078 20.0714 53.483 20.0734C53.5722 20.1061 53.5354 20.5518 53.4352 21.1018ZM41.8888 18.0208C41.9145 18.1578 41.886 18.581 41.8129 18.9879C41.7054 19.7649 41.7054 19.7649 40.6463 19.479C39.6624 19.1952 39.5674 19.1094 39.4834 18.4408C39.327 17.21 39.3881 17.1814 41.4616 17.7368C41.6706 17.7878 41.8772 17.9145 41.8888 18.0208ZM30.3612 16.4773C30.2891 17.0886 30.2198 17.1398 29.729 16.96C29.4167 16.8456 28.9905 16.766 28.765 16.76C28.509 16.7683 28.3601 16.4841 28.3018 15.9526C28.192 15.147 28.2003 15.1245 28.724 15.2143C30.4619 15.4427 30.4759 15.4733 30.3612 16.4773ZM19.0729 13.7969C19.1768 14.5492 19.1768 14.5492 17.8477 14.241C16.9811 14.0512 16.6325 13.8979 16.581 13.624C16.4442 12.9616 16.6851 12.7182 17.3426 12.857C18.7106 13.1284 19.0064 13.2878 19.0729 13.7969ZM53.1136 28.1271C53.2932 31.2287 53.2812 31.6069 52.8427 33.5638C52.164 36.453 50.9609 38.5634 48.3363 41.3777C47.0986 42.6847 45.9526 43.9487 45.7645 44.1859C45.4882 44.5949 45.285 44.597 44.3035 44.2375C43.5005 43.9434 43.2352 43.7697 43.4069 43.5775C45.982 40.8981 47.0766 39.3602 48.4211 36.5873C49.9527 33.3726 51.0733 28.6554 50.9487 25.9566C50.9137 25.6376 51.0523 25.5354 51.4786 25.6149C52.9604 25.8516 52.9745 25.8822 53.1136 28.1271ZM41.883 25.2893C42.0508 29.9427 40.6104 33.5989 37.2843 36.9471C36.4533 37.7652 35.4401 38.8738 34.9864 39.4219L34.1952 40.4077L33.0552 40.0666L31.8928 39.7174L33.3351 38.1283C35.6518 35.5328 36.6067 33.8927 38.0073 30.0689C38.8888 27.6621 39.2963 26.2041 39.4241 25.0264C39.6642 22.9204 39.6559 22.9429 40.2994 23.051C41.7813 23.2877 41.8176 23.3265 41.883 25.2893ZM30.6267 22.3144C30.6375 23.3899 30.4288 24.5124 29.8449 26.3139C28.8994 29.3096 28.2009 30.4568 25.4765 33.3366C24.4574 34.392 23.4665 35.5087 23.276 35.8216C22.9057 36.3492 22.8 36.3615 21.7962 35.9939C21.1939 35.7733 20.7196 35.5485 20.7361 35.5035C20.7608 35.4361 21.378 34.7182 22.1114 33.8899C24.42 31.3169 25.7442 28.9448 26.9227 25.2436C27.4901 23.4871 28.0377 21.6468 28.1132 21.1643C28.2595 20.3505 28.3288 20.2993 28.9418 20.4218C30.6079 20.7769 30.6079 20.7769 30.6267 22.3144ZM99.7135 68.5375C99.6723 68.65 99.0184 69.8136 98.254 71.1408C90.5557 84.6992 79.5588 93.6564 65.9424 97.4705L63.9995 98.0089L46.403 91.6915L28.8066 85.374L28.1346 85.6891C27.3098 86.0758 26.8698 87.1392 27.1968 87.9733C27.4335 88.5702 27.6789 88.6601 44.2527 94.7305L61.0496 100.883L60.514 102.345C60.0444 103.627 59.8787 103.872 59.2149 104.165L58.4736 104.531L36.1001 96.3364C18.8653 89.9984 13.662 88.0416 13.4768 87.7186C13.0475 87.0257 13.0517 86.1853 13.5213 84.9032L13.9826 83.6436L17.5517 84.9508C20.8308 86.1518 21.1818 86.2294 21.7317 85.9716C22.4953 85.6135 22.8966 84.587 22.5861 83.7079C22.36 83.0128 22.2707 82.9802 18.0795 81.3685L13.8213 79.7324L12.7984 78.3118C5.84799 68.623 2.58682 55.2854 4.03211 42.498C4.43291 39.1243 5.03587 35.544 5.39837 34.5543L5.63729 33.902L52.7042 51.1411C78.6022 60.6266 99.7464 68.4476 99.7135 68.5375Z" fill="#EBF2FC"/>
</svg>
