<svg width="154" height="154" viewBox="0 0 154 154" fill="none" xmlns="http://www.w3.org/2000/svg">
<g clip-path="url(#clip0_78_1674)">
<path d="M75.1919 22.0999C74.4441 22.6344 74.4104 23.2585 75.0445 25.8574C76.2996 31.1095 75.0416 34.5108 70.7337 37.4962C66.5847 40.3931 64.9068 43.0967 64.7044 47.2778C64.6314 48.5017 64.7692 49.4194 65.4079 51.7091C66.1849 54.48 66.2434 54.6203 67.0017 55.0077C67.9044 55.464 68.2323 55.4386 69.0117 54.8196C69.7782 54.2551 69.7673 53.7698 68.9711 50.2588C68.3459 47.4781 68.3034 47.0773 68.6069 45.8508C69.0714 43.9961 70.5666 42.157 72.8272 40.6264C76.84 37.9155 78.7961 34.8644 79.1802 30.692C79.4644 27.5187 78.4766 22.6405 77.3708 21.975C76.8001 21.6207 75.7865 21.6782 75.1919 22.0999Z" fill="#000"/>
<path d="M57.8157 37.593C57.3998 38.2295 57.3952 38.5387 57.7484 40.0479C58.4607 43.0907 57.9309 44.4471 55.2616 46.5355C53.1325 48.1893 52.1791 49.4908 51.7088 51.3212C51.3867 52.5777 51.4049 52.9842 51.9291 55.2237C52.5046 57.6822 52.546 57.7496 53.34 58.1799C54.3329 58.6921 54.8741 58.5911 55.5536 57.7645C56.0109 57.1953 56.0083 56.9648 55.6099 54.8242C54.9723 51.6613 55.1473 51.3122 58.5458 48.7194C60.0674 47.5416 61.1731 45.7936 61.6335 43.8115C61.9255 42.5364 61.8991 41.875 61.5163 39.9106C61.078 37.5996 61.0252 37.4836 60.3043 37.0361C59.3129 36.4209 58.3879 36.6374 57.8157 37.593Z" fill="#000"/>
<path d="M83.047 31.6355C82.7171 32.2006 82.7109 32.6129 83.0129 33.903C83.7821 37.1892 83.2896 38.4855 80.4054 40.7526C78.1473 42.5136 77.0173 44.2673 76.8231 46.2898C76.6538 47.8699 77.4174 51.1318 78.1264 51.9671C79.0142 53.0174 80.7968 52.6258 81.1692 51.2549C81.2339 50.983 81.1049 49.8834 80.8542 48.8124C80.1875 45.9644 80.5376 45.2662 83.8186 42.8293C85.2842 41.7416 86.5033 39.7103 86.8964 37.7696C87.1527 36.4515 87.1465 35.657 86.7978 33.8386C86.3938 31.6737 86.341 31.5577 85.62 31.1103C84.6287 30.495 83.5763 30.7157 83.047 31.6355Z" fill="#000"/>
<path d="M100.851 53.837C99.1768 55.4613 97.3405 61.4371 97.3634 65.1547C97.3593 66.2341 97.364 67.1316 97.3454 67.1617C97.3324 67.2161 96.6011 67.0535 95.7253 66.822C93.9379 66.316 91.4783 66.558 89.9987 67.3665C89.228 67.8037 89.0462 67.7949 87.7198 67.2837C85.8869 66.583 84.5714 66.5572 82.3304 67.1845C80.7896 67.6222 80.383 67.6403 79.5445 67.3487C76.9989 66.4554 73.2952 66.7575 68.9189 68.2441C66.3713 69.0972 65.7871 69.2339 64.4358 69.1651C63.5812 69.1341 61.6743 69.3237 60.1723 69.5982C53.0033 70.8912 47.4343 75.0705 45.7963 80.358C45.5607 81.1064 44.9511 82.122 44.2975 82.8399C42.8054 84.473 41.0871 87.4428 40.5552 89.3389C40.1529 90.6912 39.9607 90.9672 39.1414 91.4158C36.9284 92.6014 35.4275 94.4162 34.7564 96.7044C34.4431 97.7791 34.182 98.1997 33.7926 98.2908C32.8919 98.5017 30.6665 100.512 30.0424 101.685C29.3625 102.948 28.9062 105.058 29.0119 106.496C29.084 107.353 28.939 107.72 28.1808 108.54C27.2118 109.665 26.3992 111.678 26.3288 113.133C26.3154 113.624 26.4216 114.626 26.5811 115.307L26.8831 116.597L25.1305 117.008C23.0858 117.486 22.196 118.182 21.6704 119.666C21.4032 120.499 21.4513 120.924 22.3848 124.583C23.3923 128.558 23.4036 128.607 24.583 130.025C26.6014 132.505 29.5261 133.592 32.802 133.108L34.5401 132.855L35.0244 134.924C35.6113 137.431 36.3416 138.467 38.2958 139.576C40.7549 140.977 36.7773 141.755 89.21 129.481C142.495 117.008 137.842 118.303 139.527 115.52C140.635 113.669 140.746 112.719 140.131 110.09L139.698 108.24L141.367 107.695C144.518 106.675 146.787 104.193 147.453 101.007C147.76 99.5744 147.723 99.1979 146.958 95.6025C146.064 91.3442 145.812 90.8129 144.381 89.9666C143.551 89.4933 143.291 89.4772 141.448 89.8315L139.405 90.2071L138.873 88.483C138.098 85.9426 136.534 84.306 133.917 83.3267C133.495 83.1688 133.126 82.6902 132.745 81.8295C132.428 81.1334 131.782 80.1292 131.299 79.6004C130.47 78.6904 130.453 78.6174 130.792 78.2041C132.816 75.8817 134.701 71.5378 135.177 68.0885C135.592 65.1415 135.406 63.7985 134.519 63.0818C133.602 62.3464 132.224 62.0528 130.047 62.0746C125.771 62.1255 122.646 63.0366 119.01 65.2741C117.909 65.9428 117.003 66.4628 116.973 66.4442C116.938 66.4012 116.532 65.5461 116.062 64.5264C114.29 60.5763 111.188 57.1944 107.202 54.8664C103.651 52.7452 102.186 52.523 100.851 53.837ZM106.567 58.841C108.679 60.2978 111.16 63.1064 112.415 65.5085C113.211 67.0425 114.561 72.0414 114.332 72.7111C114.256 72.9343 113.924 72.8323 113.301 72.3621C112.467 71.7613 109.424 70.8302 108.792 70.9783C108.645 71.0125 108.225 70.7515 107.866 70.4247C106.507 69.2279 104.371 68.5469 102.121 68.5858C101.223 68.5905 101.062 68.012 101.121 65.3022C101.171 62.7743 101.486 61.1599 102.352 58.8261L103.085 56.9088L103.88 57.236C104.332 57.4126 105.528 58.1341 106.567 58.841ZM63.4509 72.9646C65.4464 72.934 66.3952 73.1483 67.5668 73.8755C68.7684 74.6212 69.147 75.2515 68.9026 76.1817C68.6566 77.215 67.3271 78.1167 64.6879 79.0169C61.3841 80.1498 60.109 81.0644 58.3813 83.4459C57.1368 85.1494 55.9089 86.1557 54.7218 86.4593C53.6507 86.71 51.1248 86.1202 50.3169 85.4106C47.6055 83.0413 50.0178 77.8806 55.0969 75.2282C57.7066 73.8727 60.8483 73.0346 63.4509 72.9646ZM77.0441 70.707C78.7931 70.9395 79.8989 71.605 80.5945 72.9314C81.5973 74.8021 81.486 76.9592 80.0749 82.8868C79.0003 87.4005 78.9734 88.3825 79.9948 89.0164C80.7458 89.4825 82.1146 89.1878 82.5134 88.4782C82.6569 88.2135 83.2897 85.6519 83.9142 82.8354C85.1922 76.8876 85.2853 74.3239 84.3074 72.0109C83.7449 70.7047 83.7636 70.6747 84.2991 70.5493C85.2728 70.3214 86.233 70.5845 87.5905 71.4478C89.0739 72.41 89.426 72.379 90.7757 71.3441C93.0208 69.6375 95.3509 69.9393 97.2637 72.1876C98.4317 73.5574 98.9454 73.6682 100.637 72.8872C102.811 71.8647 104.285 72.2386 106.66 74.3786C107.049 74.724 107.569 74.8592 108.303 74.8156C109.894 74.7001 111.093 75.2154 112.262 76.4822C113.432 77.7489 113.867 77.8525 115.325 77.2802C117.576 76.368 120.261 77.3059 121.339 79.39C122.035 80.7163 122.613 80.9918 124.356 80.7634C127.145 80.393 128.916 81.596 129.603 84.3109C129.808 85.1872 130.111 86.0408 130.242 86.164C130.404 86.3059 131.188 86.5845 131.998 86.7544C133.836 87.1459 135.025 88.2796 135.424 89.9835L135.692 91.1276L83.0888 103.441L30.4857 115.754L30.2526 114.32C29.947 112.465 30.3877 111.387 31.928 110.179C32.5484 109.648 33.1331 109.075 33.2149 108.876C33.2781 108.707 33.1704 107.808 32.9652 106.932C32.3757 104.194 33.4286 102.33 36.0922 101.424C37.7563 100.855 38.096 100.442 38.125 98.92C38.155 97.7318 39.3171 95.4571 39.9744 95.3033C40.1934 95.252 40.442 95.6559 40.7673 96.6068C41.5034 98.8737 43.0463 100.31 45.2874 100.889C46.3807 101.173 48.6129 100.727 51.941 99.5886C54.745 98.6242 55.9802 98.7458 58.8128 100.317C63.4136 102.86 68.7243 102.952 73.9148 100.556C76.4241 99.4293 79.2985 97.0105 79.4543 95.9213C79.6029 94.9109 79.0984 94.1816 77.9994 93.874C77.3111 93.6757 77.1707 93.7342 75.6662 94.9851C72.2703 97.8083 67.7697 99.0929 63.8454 98.3426C63.0897 98.1857 61.4986 97.5311 60.3255 96.9071C56.5488 94.8127 54.4947 94.703 49.6486 96.3766C46.8203 97.3467 46.5038 97.4208 45.8285 97.1681C44.8154 96.789 44.3182 95.9811 44.0141 94.0239C43.6572 91.9506 44.191 89.5148 45.3527 87.6767L46.1787 86.3793L47.2353 87.4928C50.2663 90.7887 55.402 91.2298 58.9367 88.451C59.5199 87.9808 60.5432 86.8682 61.1813 85.9743C62.6252 83.916 63.33 83.4172 66.018 82.5056C69.7599 81.2702 71.786 79.6149 72.513 77.2366C73.0029 75.7097 72.6217 73.6422 71.6982 72.5489C71.3522 72.1678 71.0735 71.7451 71.0337 71.5747C70.9254 71.1122 75.2951 70.4745 77.0441 70.707ZM129.996 65.8093C130.737 65.7901 131.438 65.9341 131.556 66.1117C131.669 66.265 131.51 67.5603 131.174 68.9743C130.539 71.639 129.126 74.486 127.64 76.1434C126.9 76.9328 126.784 76.9856 125.62 76.9499C124.535 76.9214 124.252 76.808 123.393 75.8794C122.289 74.6743 120.804 73.8151 119.191 73.3967C118.158 73.1507 118.062 73.0704 118.049 72.3547C118.025 71.9237 117.984 71.4198 117.944 71.2494C117.779 70.5435 121.586 67.8295 124.215 66.7775C125.222 66.3621 128.383 65.8275 129.996 65.8093ZM143.265 96.0564C143.618 97.5656 143.859 99.255 143.844 99.8491C143.751 101.206 142.707 102.888 141.532 103.574C140.805 103.975 134.59 105.507 115.433 109.991L90.2878 115.877L89.8533 116.544C89.221 117.462 89.5545 118.668 90.536 119.131C91.3129 119.489 91.4103 119.466 113.659 114.258L136.029 109.022L136.445 110.799C136.918 112.819 136.737 113.58 135.596 114.412C134.499 115.208 42.2914 136.792 40.9547 136.566C39.5635 136.327 39.0632 135.725 38.5903 133.704L38.1743 131.927L61.0314 126.577C82.9879 121.438 83.9072 121.197 84.3402 120.633C84.971 119.818 84.6291 118.357 83.702 117.907C83.0639 117.594 82.0846 117.798 57.4748 123.558C37.9768 128.122 31.6552 129.525 30.8249 129.488C29.468 129.395 27.7858 128.351 27.1 127.176C26.8229 126.651 26.2894 125.03 25.9361 123.521L25.3036 120.819L83.9679 107.086L142.632 93.3544L143.265 96.0564Z" fill="#000"/>
<path d="M91.0358 77.8305C89.8855 78.5106 88.713 79.8634 88.5359 80.7522C88.2941 81.9128 89.7184 83.1713 90.9542 82.8564C91.1246 82.8165 91.6533 82.3333 92.1464 81.8071C92.6767 81.2207 93.3629 80.752 93.8254 80.6437C94.2879 80.5355 95.1109 80.651 95.8464 80.941C96.5217 81.1937 97.2101 81.392 97.3805 81.3521C98.6276 81.0859 99.3454 79.326 98.6135 78.3932C97.7216 77.2155 94.815 76.5351 92.8791 77.0396C92.3922 77.1535 91.5744 77.499 91.0358 77.8305Z" fill="#000"/>
<path d="M104.399 82.3794C103.503 83.9244 105.15 85.6956 106.744 84.9374C107.208 84.726 107.548 84.3127 107.664 83.8233C107.948 82.7299 107.802 82.3275 106.937 81.8112C106 81.2089 104.947 81.4296 104.399 82.3794Z" fill="#000"/>
<path d="M86.8263 92.4241C86.224 93.361 86.4446 94.4134 87.3645 94.9427C88.29 95.4963 89.2767 95.214 89.8733 94.2527C90.2461 93.6519 90.2808 93.3614 90.011 92.757C89.3542 91.2675 87.6409 91.078 86.8263 92.4241Z" fill="#000"/>
<path d="M116.243 85.153C113.45 86.6028 112.416 89.2069 114.226 90.2468C115.086 90.7388 115.829 90.5135 116.864 89.4497C117.394 88.8634 118.019 88.4604 118.603 88.3237C119.187 88.1869 119.901 88.2765 120.637 88.5665C121.234 88.812 121.983 88.9445 122.276 88.8761C123.006 88.7052 123.783 87.4192 123.612 86.6889C123.156 84.7416 118.816 83.8576 116.243 85.153Z" fill="#000"/>
<path d="M99.1481 90.4385C98.5778 90.8544 98.3293 91.6572 98.523 92.4848C98.882 94.0183 101.202 94.1684 101.891 92.7234C102.367 91.6876 102.182 91.1148 101.155 90.4565C100.224 89.8786 99.9446 89.8925 99.1481 90.4385Z" fill="#000"/>
<path d="M39.3857 105.403C38.7363 106.249 39.0999 107.473 40.1285 108.028C41.0914 108.522 41.6569 108.415 42.3307 107.564C42.7077 107.091 42.7927 106.685 42.6502 106.077C42.2798 104.495 40.4179 104.109 39.3857 105.403Z" fill="#000"/>
</g>
<defs>
<clipPath id="clip0_78_1674">
<rect width="128" height="128" fill="white" transform="translate(0 29.1736) rotate(-13.1745)"/>
</clipPath>
</defs>
</svg>